<svg
  version="1.0"
  xmlns="http://www.w3.org/2000/svg"
  width="1920.000000pt"
  height="266.000000pt"
  viewBox="0 0 1920.000000 266.000000"
  preserveAspectRatio="xMidYMid meet"
>
  <g
    transform="translate(0.000000,266.000000) scale(0.100000,-0.100000)"
    fill="#B53821"
    stroke="none"
  >
    <path
      d="M1 1353 c0 -720 3 -1301 6 -1293 15 44 61 132 95 182 21 31 38 62 38
68 0 18 242 252 276 266 17 7 36 20 43 28 21 25 119 78 191 104 60 21 103 35
295 94 60 18 135 48 197 79 10 5 26 9 36 9 24 0 99 40 193 103 31 20 61 37 67
37 19 0 252 232 269 269 9 20 24 45 33 56 44 51 134 275 165 405 10 41 21 79
26 85 5 5 9 18 9 30 0 11 7 29 15 39 8 11 15 28 15 38 0 10 9 37 19 61 11 23
27 65 37 92 26 71 67 129 154 216 154 154 207 197 302 242 95 45 171 80 198
90 8 3 -591 6 -1332 6 l-1348 1 1 -1307z"
    />
    <path
      d="M3465 2645 c28 -8 64 -14 80 -15 17 0 55 -12 85 -26 30 -14 83 -34
117 -44 35 -10 76 -28 92 -39 16 -12 33 -21 37 -21 8 0 27 -12 135 -83 30 -20
62 -37 70 -37 8 0 32 -9 53 -21 21 -11 74 -33 117 -49 43 -16 100 -45 126 -65
26 -19 64 -43 83 -52 19 -10 37 -21 40 -24 6 -8 169 -119 174 -119 8 0 144
-84 236 -146 52 -35 118 -73 145 -84 28 -12 59 -25 70 -30 40 -18 288 -92 338
-101 29 -5 75 -14 102 -21 65 -16 398 -16 485 0 36 7 96 17 133 22 37 5 91 16
120 24 29 8 79 20 112 26 76 16 149 40 245 80 41 17 86 35 100 40 33 11 167
88 208 120 18 14 51 40 75 59 23 18 53 38 67 44 14 6 57 42 96 79 40 37 77 68
84 68 6 0 33 18 59 40 26 22 50 40 54 40 4 0 25 11 48 25 65 42 260 128 309
137 54 11 121 24 193 39 74 15 411 23 472 11 28 -6 77 -16 110 -22 133 -25
240 -52 284 -72 153 -69 232 -112 281 -152 30 -26 59 -46 64 -46 11 0 113 -67
121 -80 10 -17 109 -59 245 -105 l135 -45 171 0 c127 0 183 4 214 15 23 8 62
15 87 15 24 0 85 14 135 30 50 17 101 30 114 30 13 0 33 4 46 9 13 5 46 19 75
30 28 12 63 21 77 21 15 0 34 4 44 9 21 11 131 48 189 65 23 6 45 15 49 19 4
4 17 7 29 7 11 0 25 4 31 9 12 11 125 51 146 51 8 0 30 8 49 17 18 9 56 21 84
26 27 5 70 13 95 18 119 26 187 32 335 32 158 -1 278 -11 365 -33 25 -6 63
-15 85 -19 22 -4 60 -16 85 -25 79 -31 84 -33 135 -54 76 -30 97 -41 130 -62
17 -11 53 -30 80 -43 28 -13 64 -35 80 -48 17 -14 44 -31 60 -39 17 -8 37 -20
45 -27 9 -7 70 -40 135 -74 66 -34 127 -67 135 -74 8 -7 29 -17 45 -23 17 -6
67 -26 113 -45 103 -44 182 -70 297 -97 50 -11 99 -23 110 -26 51 -14 231 -36
335 -41 244 -11 443 40 759 195 209 103 251 120 376 150 104 25 608 25 678 -1
26 -9 65 -17 86 -17 71 0 399 -98 575 -172 171 -72 355 -137 387 -138 15 0 46
-7 70 -16 181 -65 551 15 716 155 130 109 158 131 176 137 12 4 39 24 61 44
112 104 341 230 434 238 29 2 55 8 58 13 8 13 259 11 308 -2 22 -6 59 -15 81
-21 22 -6 49 -14 60 -18 11 -4 38 -13 60 -19 22 -6 58 -22 80 -35 22 -13 73
-41 114 -62 51 -25 101 -62 156 -115 45 -44 85 -79 89 -79 3 0 6 169 6 375 l0
375 -7892 -1 c-6752 0 -7886 -2 -7843 -14z"
    />
  </g>
</svg>
